<svg xmlns="http://www.w3.org/2000/svg" xmlns:xlink="http://www.w3.org/1999/xlink" width="107" height="361" viewBox="0 0 107 361">
  <defs>
    <clipPath id="clip-path">
      <rect id="Rectangle_2187" data-name="Rectangle 2187" width="107" height="361" transform="translate(0 859)" fill="#045f3d" stroke="#707070" stroke-width="1"/>
    </clipPath>
    <clipPath id="clip-path-2">
      <rect id="Rectangle_2" data-name="Rectangle 2" width="715.519" height="401.659" fill="none"/>
    </clipPath>
  </defs>
  <g id="Mask_Group_103" data-name="Mask Group 103" transform="translate(0 -859)" clip-path="url(#clip-path)">
    <g id="Layer_2" data-name="Layer 2" transform="translate(507 961.847) rotate(150)" opacity="0.15">
      <g id="Layer_1" data-name="Layer 1" transform="translate(0 0)">
        <g id="Group_2" data-name="Group 2" clip-path="url(#clip-path-2)">
          <path id="Path_7" data-name="Path 7" d="M391.81,409.065c0,58.367-41.622,71.9-61.582,51.932-6.7-6.7-32.15-41.235-73.676-41.235-52.688,0-74.154,22.682-79.484,22.911-8.674.368-33.685-75.752-.445-94.808,4.645-2.665,25,11.482,96,11.482,47.335,0,70.547-24.461,70.547-70.284,0-29.805-11.6-55.8-24.992-55.8-21.883,0,12.582,112.662-51.8,112.662-34.589,0,14.663-104.888-43.765-98.152-31.939,3.679-34.824,56.549-65.194,56.549-16.075,0-26.342-25.978-43.311-25.978-32.15.014-33.494,211.828-64.754,211.828-14.735,0-46.148-170.043-48.224-185.09-3.851-27.9,1.574-48.894,25.007-48.894,15.175,0,26.791,25.208,44.206,25.208,31.25,0,17.84-223.765,64.744-223.765,15.185,0-12.439,193.969,44.206,193.969,26.844,0,13.956-55.745,64.3-55.745,39.885,0,30.81,29.021,47.334,29.021,27.318,0,42.364-88.607-56.013-157.676C205.386,46.464,220.164,0,256.246,0h65.959a69.593,69.593,0,0,1,69.6,69.61Z" transform="translate(375.522 -48.052)" fill="#045f3d"/>
        </g>
      </g>
    </g>
  </g>
</svg>
