<svg xmlns="http://www.w3.org/2000/svg" xmlns:xlink="http://www.w3.org/1999/xlink" width="139" height="527" viewBox="0 0 139 527">
  <defs>
    <clipPath id="clip-path">
      <rect id="Rectangle_2186" data-name="Rectangle 2186" width="139" height="527" transform="translate(1227 174)" fill="#045f3d" stroke="#707070" stroke-width="1"/>
    </clipPath>
    <clipPath id="clip-path-2">
      <rect id="Rectangle_2" data-name="Rectangle 2" width="1046.237" height="587.309" fill="none"/>
    </clipPath>
  </defs>
  <g id="Mask_Group_102" data-name="Mask Group 102" transform="translate(-1227 -174)" opacity="0.47" clip-path="url(#clip-path)">
    <g id="Layer_2" data-name="Layer 2" transform="matrix(0.866, 0.5, -0.5, 0.866, 1614.708, 142.063)" opacity="0.15">
      <g id="Layer_1" data-name="Layer 1" transform="translate(-784.93 84.57)">
        <g id="Group_2" data-name="Group 2" clip-path="url(#clip-path-2)">
          <path id="Path_7" data-name="Path 7" d="M1357.834,118.594c0-85.344-60.86-105.127-90.045-75.935-9.794,9.794-47.009,60.294-107.73,60.294-77.041,0-108.429-33.165-116.222-33.5-12.683-.539-49.255,110.766-.651,138.628,6.792,3.9,36.558-16.789,140.377-16.789,69.213,0,103.155,35.768,103.155,102.77,0,43.582-16.957,81.595-36.544,81.595-32,0,18.4-164.735-75.747-164.735-50.577,0,21.441,153.368-63.994,143.518-46.7-5.379-50.92-82.686-95.327-82.686-23.5,0-38.517,37.985-63.33,37.985C904.768,309.716,902.8,0,857.094,0c-21.546,0-67.478,248.639-70.514,270.639-5.631,40.8,2.3,71.493,36.565,71.493,22.19,0,39.174-36.859,64.638-36.859,45.694,0,26.086,327.19,94.669,327.19,22.2,0-18.188-283.623,64.638-283.623,39.252,0,20.406,81.511,94.026,81.511,58.321,0,45.051-42.434,69.213-42.434,39.944,0,61.945,129.562-81.9,230.555-43.183,30.318-21.574,98.258,31.185,98.258h96.446a101.76,101.76,0,0,0,101.777-101.784Z" transform="translate(-235.837 -59.16)" fill="#045f3d"/>
        </g>
      </g>
    </g>
  </g>
</svg>
