<svg xmlns="http://www.w3.org/2000/svg" width="175.113" height="139.779" viewBox="0 0 175.113 139.779">
  <g id="Group_8097" data-name="Group 8097" transform="translate(-4607.717 882.505)">
    <path id="Path_59532" data-name="Path 59532" d="M2019.89,1170.9c-3.045-5.909-7.117-10.3-8.167-16.81-3.542-21.928-15.714-38.674-33.034-52a137.726,137.726,0,0,0-29.451-16.989,3.579,3.579,0,0,0-2.539-.2c-19.658,8.574-37.28,19.881-49.992,37.652a78.6,78.6,0,0,0-13.823,35.166,14.761,14.761,0,0,1-1.8,5.007c-1.577,2.8-3.434,5.45-5.175,8.161l-.712-.063c-.6-4.53-1.469-9.044-1.745-13.593-1.267-20.876,6.163-38.771,19.266-54.533,14.6-17.577,33-30.159,53.519-39.845a3.34,3.34,0,0,1,2.5-.175c24.232,11.557,45.746,26.569,60.766,49.384,11.049,16.776,15.042,35.192,11.184,55.1-.2,1.029-.451,2.046-.823,3.728" transform="translate(2747.568 -1945.01)" fill="#b48f2e"/>
    <path id="Path_59533" data-name="Path 59533" d="M2080.4,1328.23c0-5.8-.041-11,.048-16.194a3.331,3.331,0,0,1,1.074-2.088c1.431-1.331,3.013-2.5,4.671-3.847-1.988-2.1-3.415-3.445-4.623-4.962a5.033,5.033,0,0,1-1.118-2.748c-.123-3.933-.1-7.87,0-11.807a4.641,4.641,0,0,1,.876-2.673c4.865-5.92,11.345-9.156,18.685-10.811a1.935,1.935,0,0,1,1.659.637c6.36,10.2,12.676,20.429,19.1,30.868-16.246,2.919-29.354,10.893-40.359,23.643" transform="translate(2617.703 -2077.088)" fill="#b48f2e"/>
    <path id="Path_59534" data-name="Path 59534" d="M1993.279,1305.071a17.357,17.357,0,0,0,1.924,2.136c3.322,2.349,4.123,5.559,3.8,9.465-.294,3.59-.063,7.221-.063,11.556-11.031-12.652-24.072-20.713-40.381-23.587,2.654-4.306,5.219-8.459,7.769-12.608,3.653-5.924,7.277-11.862,11.016-17.734a2.8,2.8,0,0,1,2.237-1.119,33.5,33.5,0,0,1,17.469,9.521,6.1,6.1,0,0,1,1.95,4.847,85.509,85.509,0,0,0,0,9.532,5.514,5.514,0,0,1-2.148,5.145c-1.141.876-2.259,1.789-3.563,2.826" transform="translate(2694.102 -2077.135)" fill="#b48f2e"/>
    <path id="Path_59535" data-name="Path 59535" d="M2085.52,1329.708c12.168-16.284,28.567-24.776,49.209-26l-24.706-37.28c4.473-1.178,8.4-.469,12.325.85a8.885,8.885,0,0,1,5,3.918c8.731,13.913,17.589,27.751,26.4,41.612.4.63.768,1.278,1.32,2.206-25.384-4.634-48.293,1.007-69.539,14.7" transform="translate(2614.473 -2072.538)" fill="#045f3d"/>
    <path id="Path_59536" data-name="Path 59536" d="M1944.747,1329.735c-21.279-13.793-44.262-19.46-69.747-14.774,2.051-3.225,3.959-6.218,5.861-9.216,7.512-11.822,15-23.662,22.569-35.446a6.948,6.948,0,0,1,2.811-2.43,21.239,21.239,0,0,1,11.49-2.024c.727.086,1.443.268,2.434.455l-24.742,37.332c20.656,1.2,37.075,9.741,49.322,26.1" transform="translate(2746.511 -2072.461)" fill="#045f3d"/>
    <path id="Path_59537" data-name="Path 59537" d="M2176.27,1091.83a26.8,26.8,0,0,1,14.718-5.447,2.8,2.8,0,0,1,1.9.921c26.543,27.766,37.407,60.352,30.231,98.467a11.582,11.582,0,0,1-.47,1.29c1.518-40.236-12.5-72.423-46.376-95.231" transform="translate(2557.554 -1959.983)" fill="#045f3d"/>
    <path id="Path_59538" data-name="Path 59538" d="M1887,1091.918c-33.861,22.741-47.9,54.973-46.674,94.922-.552-3.277-1.275-6.535-1.625-9.835-3.661-34.219,7.083-63.483,30.443-88.442a5.256,5.256,0,0,1,5.513-1.883c4.492.925,8.708,2.341,12.34,5.241" transform="translate(2769.719 -1960.072)" fill="#045f3d"/>
  </g>
</svg>
