<svg id="contact" xmlns="http://www.w3.org/2000/svg" width="482.5" height="437.616" viewBox="0 0 482.5 437.616">
  <g id="Group_8075" data-name="Group 8075" opacity="0.29">
    <path id="Path_59435" data-name="Path 59435" d="M62.965,177.564A61.715,61.715,0,0,1,1.25,115.849V70.965A61.715,61.715,0,0,1,62.965,9.25H85.407a17.056,17.056,0,0,1,16.831,16.831V138.291A39.5,39.5,0,0,1,62.965,177.564Zm0-134.651A28.052,28.052,0,0,0,34.913,70.965v44.884A28.052,28.052,0,0,0,62.965,143.9a5.61,5.61,0,0,0,5.61-5.61V42.913Z" transform="translate(-1.25 147.843)" fill="#045f3d"/>
    <path id="Path_59436" data-name="Path 59436" d="M57.523,177.564H35.081a16.831,16.831,0,0,1,0-33.663H57.523a28.052,28.052,0,0,0,28.052-28.052V70.965A28.052,28.052,0,0,0,57.523,42.913h-5.61V93.407a16.831,16.831,0,0,1-33.663,0V26.081A17.056,17.056,0,0,1,35.081,9.25H57.523a61.715,61.715,0,0,1,61.715,61.715v44.884A61.715,61.715,0,0,1,57.523,177.564Z" transform="translate(363.262 147.843)" fill="#045f3d"/>
    <path id="Path_59437" data-name="Path 59437" d="M335.267,193.006a17.056,17.056,0,0,1-16.831-16.831,140.262,140.262,0,1,0-280.523,0,16.831,16.831,0,1,1-33.663,0,173.924,173.924,0,1,1,347.849,0A17.056,17.056,0,0,1,335.267,193.006Z" transform="translate(63.076 -2.25)" fill="#045f3d"/>
    <path id="Path_59438" data-name="Path 59438" d="M73.965,138.68H29.081a16.831,16.831,0,0,1,0-33.663H73.965A73.16,73.16,0,0,0,146.9,32.081a16.831,16.831,0,1,1,33.663,0A106.6,106.6,0,0,1,73.965,138.68Z" transform="translate(234.61 276.494)" fill="#045f3d"/>
  </g>
  <path id="Path_59439" data-name="Path 59439" d="M79.613,91.117A67.326,67.326,0,0,1,8.921,30.973a16.9,16.9,0,1,1,33.663-3.142A34.112,34.112,0,0,0,79.613,57.455a34.112,34.112,0,0,0,37.029-29.623A16.9,16.9,0,1,1,150.3,30.973,67.326,67.326,0,0,1,79.613,91.117Z" transform="translate(161.637 217.458)" fill="#b48f2e"/>
  <path id="Path_59440" data-name="Path 59440" d="M70.965,96.8H48.523a39.273,39.273,0,0,1,0-78.546H70.965a39.273,39.273,0,1,1,0,78.546ZM48.523,51.913a5.61,5.61,0,1,0,0,11.221H70.965a5.61,5.61,0,1,0,0-11.221Z" transform="translate(138.762 340.82)" fill="#045f3d" opacity="0.29"/>
  <circle id="Ellipse_2980" data-name="Ellipse 2980" cx="22.442" cy="22.442" r="22.442" transform="translate(173.924 129.041)" fill="#045f3d" opacity="0.45"/>
  <circle id="Ellipse_2981" data-name="Ellipse 2981" cx="22.442" cy="22.442" r="22.442" transform="translate(263.692 129.041)" fill="#045f3d" opacity="0.45"/>
</svg>
