<svg xmlns="http://www.w3.org/2000/svg" width="271.259" height="54.504" viewBox="0 0 271.259 54.504">
  <g id="Group_8098" data-name="Group 8098" transform="translate(-3776.741 1787.752)">
    <path id="Path_59442" data-name="Path 59442" d="M700.231,1146.068a8.4,8.4,0,0,0,4.172-1.438,7.241,7.241,0,0,0,2.358-1.838,3.12,3.12,0,0,0,.325-1.188.884.884,0,0,0-.457-.831,2.345,2.345,0,0,0-.631-.258l-.923-.2a2.358,2.358,0,0,0,.3-.316,3.055,3.055,0,0,0,.474-1.346,5.76,5.76,0,0,0,.067-.789q-.482-4.564-.84-7.24a3.274,3.274,0,0,0,.441.483.2.2,0,0,0,.107.051c.033,0,.051-.027.051-.083a6.79,6.79,0,0,0-.856-2.1,1.411,1.411,0,0,0-.232-.383c-.016,0-.031.027-.042.067a6.467,6.467,0,0,0-.308,1,.234.234,0,0,0,.051.158,1.788,1.788,0,0,1,.151.225q.033.84.248,2.652l.4,2.926q.348,2.643.348,3.191a.31.31,0,0,1-.016.132,1.7,1.7,0,0,1-.766.7,3.019,3.019,0,0,1-1.322.4q-.225.016-.258.907a.087.087,0,0,0,.016.051c-.011.027-.02.051-.025.067a19.194,19.194,0,0,0,2.1.544q1.313.308,1.346.5.025.133-.907.782a11.814,11.814,0,0,1-2.327,1.27,8.008,8.008,0,0,1-3.049.673,2.528,2.528,0,0,1-1.77-.726,2.358,2.358,0,0,1-.807-1.716,7.03,7.03,0,0,1,.374-2.311,2.055,2.055,0,0,0,.125-.573c0-.078-.016-.116-.049-.116q-.151,0-.363.606-.308.865-.341.989a7.324,7.324,0,0,0-.181,1.778,3.5,3.5,0,0,0,.756,2.27,2.77,2.77,0,0,0,2.26,1.039" transform="translate(3079.677 -2911.807)" fill="#fff"/>
    <path id="Path_59443" data-name="Path 59443" d="M755.419,1188a5.9,5.9,0,0,0,3.358-1.451,8.975,8.975,0,0,0,2-1.912,3.323,3.323,0,0,0,.341-1.687,2.865,2.865,0,0,0-.789-1.945,1.541,1.541,0,0,0-1-.59,1.161,1.161,0,0,0-.889.515,1.969,1.969,0,0,0-.432,1.323.837.837,0,0,0,.965.907q.1,0,.506-.016a1.837,1.837,0,0,1,.94.191q.363.181.408.373a7.243,7.243,0,0,1-1.861,1.671,5.968,5.968,0,0,1-3.191,1.439q-2.07,0-2-2.295a4.414,4.414,0,0,1,.132-.907q.067-.249.216-.648a1.722,1.722,0,0,0,.132-.524c0-.06-.015-.091-.042-.091q-.125,0-.332.544a6.528,6.528,0,0,0-.466,1.919v.3a3.98,3.98,0,0,0,.415,1.9,1.732,1.732,0,0,0,1.6.981m4.2-5.968h-.508q-.341-.016-.432-.167.016-.374.441-.374.348,0,.865.573a2.765,2.765,0,0,0-.363-.042" transform="translate(3033.674 -2954.235)" fill="#fff"/>
    <path id="Path_59444" data-name="Path 59444" d="M808.171,1191.649a3.209,3.209,0,0,0,1.877-1.172q2.16-2.161,2.768-2.652A3.686,3.686,0,0,1,815,1186.82a1.275,1.275,0,0,1,1.255.6q.058.142.125.141.1,0,.19-.39a2.573,2.573,0,0,0,.074-.544.88.88,0,0,0-.363-.726,1.491,1.491,0,0,0-.947-.286,4.593,4.593,0,0,0-2.884,1.322q-1.246,1.23-2.5,2.46a3.916,3.916,0,0,1-2.358,1.33q-.666,0-.715-.907a6.3,6.3,0,0,1,.847-3.033.853.853,0,0,0,.116-.316c0-.038-.015-.058-.042-.058-.094,0-.183.075-.267.225a6.868,6.868,0,0,0-1,3.291,1.7,1.7,0,0,0,.482,1.214,1.519,1.519,0,0,0,1.165.5" transform="translate(2990.189 -2958.486)" fill="#fff"/>
    <path id="Path_59445" data-name="Path 59445" d="M865.084,1181.773a7.466,7.466,0,0,0,2.794-1.451,22.193,22.193,0,0,0,2.244-1.613,1.786,1.786,0,0,0,.363-.415,2.616,2.616,0,0,0,.216-.766,2.47,2.47,0,0,0,.033-.406,1.553,1.553,0,0,0-.582-1.38,13.329,13.329,0,0,0-1.562-.805,6.247,6.247,0,0,1-1.745-1.156q.582.032.682-.074t-.216-.249c-.04-.022-.083-.043-.133-.067l-1.2-.573q-.142-.075-.181-.042a.268.268,0,0,0-.025.132v.706q0,.274.132.348a1.287,1.287,0,0,1,.308.232,5.741,5.741,0,0,0,1.388,1.355,10.364,10.364,0,0,0,1.346.726,7.568,7.568,0,0,1,1.2.682q.308.225.308.383a.317.317,0,0,1-.133.225,24.857,24.857,0,0,1-2.3,1.6,7.534,7.534,0,0,1-2.984,1.429.845.845,0,0,1-.6-.225.906.906,0,0,1-.3-.74,7.473,7.473,0,0,1,.363-1.912.925.925,0,0,0,.058-.267c0-.038,0-.058-.025-.058s-.094.091-.167.274a6.589,6.589,0,0,0-.515,2.485q0,1.613,1.223,1.613" transform="translate(2943.266 -2947.969)" fill="#fff"/>
    <path id="Path_59446" data-name="Path 59446" d="M905.135,1133.716q.325,2.154.573,4.63a18.734,18.734,0,0,0,.466,3.009,3.063,3.063,0,0,0,.673,1.156,1.968,1.968,0,0,0,1.313.726h.091v-.009a6.761,6.761,0,0,0,1.146-.39,12.331,12.331,0,0,0,2.028-1.03,3.115,3.115,0,0,0,.836,1.034,2.139,2.139,0,0,0,1.333.393h.033a1.831,1.831,0,0,0,1.462-.871,3.87,3.87,0,0,0,.49-2.318q-.524-4.987-.947-8.08l.441.483a.2.2,0,0,0,.109.051c.033,0,.051-.027.051-.083a6.484,6.484,0,0,0-.856-2.1q-.149-.383-.232-.383c-.022,0-.038.02-.049.058a4.922,4.922,0,0,0-.267,1.056.3.3,0,0,0,.049.181,1.365,1.365,0,0,1,.151.232q.074,1.4.216,2.51.84,6.467.84,7.231a.308.308,0,0,1-.016.132,1.15,1.15,0,0,1-.448.544,2.022,2.022,0,0,1-1,.2,2.447,2.447,0,0,1-.833-.107,2.09,2.09,0,0,1-.789-.566,3.73,3.73,0,0,0,.631-.631,2,2,0,0,0,.241-1.114,2.559,2.559,0,0,0-.363-1.214q-.363-.666-.682-.666-1.014,0-1.014,1.8a4.637,4.637,0,0,0,.267,1.5,9.659,9.659,0,0,1-1.7.725,4.829,4.829,0,0,1-1.148.272,1.371,1.371,0,0,1-.938-.555,3.57,3.57,0,0,1-.782-1.97q-.092-1.089-.181-2.177-.181-2-.473-3.915a17.875,17.875,0,0,0-.524-2.253q-.374-1.255-.582-1.255a.074.074,0,0,0-.067.042q-.151.615-.267,1.005,0,.049.3,1.03a11.66,11.66,0,0,1,.424,1.7m6.142,5.4a.286.286,0,0,1,.274-.216.965.965,0,0,1,.524.316,1.3,1.3,0,0,1,.441.726,3.833,3.833,0,0,1-.947.84q-.316-.726-.425-1.072.116-.544.133-.589" transform="translate(2910.064 -2912.904)" fill="#fff"/>
    <path id="Path_59447" data-name="Path 59447" d="M944.515,1159.74l.657.363a1.665,1.665,0,0,0,.283-.566,1.808,1.808,0,0,0,.109-.466q0-.165-1.088-.64-.075,0-.249.448a3.048,3.048,0,0,0-.167.466q0,.133.448.39" transform="translate(2877.606 -2936.234)" fill="#fff"/>
    <path id="Path_59448" data-name="Path 59448" d="M935.11,1160.817a2.852,2.852,0,0,0,.606.316q.149,0,.283-.35a1.568,1.568,0,0,0,.1-.49q0-.207-.363-.416a3.855,3.855,0,0,1-.8-.557,8.867,8.867,0,0,0-.408,1.023q0,.141.582.473" transform="translate(2885.407 -2936.963)" fill="#fff"/>
    <path id="Path_59449" data-name="Path 59449" d="M968.456,1138.093q-.363-2.826-.341-3.058a3.873,3.873,0,0,0,.441.4.244.244,0,0,0,.109.051c.033,0,.049-.022.049-.067a3.88,3.88,0,0,0-.4-1.056q-.248-.544-.506-1.088-.149-.363-.232-.363c-.022,0-.038.02-.049.058a3.486,3.486,0,0,0-.267,1.056,4.226,4.226,0,0,1,.225.49q.158,1.645.225,2.518.531,4.771.831,7.149a6.249,6.249,0,0,1,0,1.4q-.067.532.025.532.058,0,.181-.232a4.5,4.5,0,0,0,.325-2q0-.39-.033-.806-.142-1.632-.573-5" transform="translate(2858.62 -2915.343)" fill="#fff"/>
    <path id="Path_59450" data-name="Path 59450" d="M983.508,1159.8a5.345,5.345,0,0,0,2.917-1.246,8.355,8.355,0,0,0,2.077-2,2.914,2.914,0,0,0,.363-.923,6.66,6.66,0,0,0,.981,2.594,1.942,1.942,0,0,0,1.362.725h.058a1.518,1.518,0,0,0,1.039-.437,3.861,3.861,0,0,0,.59-.965,1.045,1.045,0,0,0,.149.656,1.746,1.746,0,0,0,.682.544,1.665,1.665,0,0,0,.6.194h.051a7.269,7.269,0,0,0,2.358-.695q2.634-1.3,4.065-2.077a4.3,4.3,0,0,0,.5-.84.38.38,0,0,0,.074-.182q0-.1-.258.016-1.887.947-2.776,1.43h-.232a3.181,3.181,0,0,1-2.112-.865q-.873-.763-.873-1.313,0-.307,1.123-.682a5.968,5.968,0,0,1,1.829-.363,4.6,4.6,0,0,1,1.047.2.742.742,0,0,0,.167.025c.062,0,.091-.02.091-.058q0-.225-.715-.566a3.754,3.754,0,0,0-1.761-.383,2.137,2.137,0,0,0-1.52.682,2.318,2.318,0,0,0-.7,1.7q0,1.3,1.936,2.411a5.862,5.862,0,0,1-2.242.374,1.315,1.315,0,0,1-.584-.229,1.346,1.346,0,0,1-.479-.4,1.933,1.933,0,0,1-.138-.287.993.993,0,0,0,.067-.308q0-.325-.415.216a4.343,4.343,0,0,0-.209.383,1.036,1.036,0,0,1-.249.363,1.966,1.966,0,0,1-1.112.265,1.281,1.281,0,0,1-1-.58,4.16,4.16,0,0,1-.756-1.878,26.436,26.436,0,0,0-.74-3.158q-.981-3.009-1.255-3.009a.093.093,0,0,0-.074.051l-.158,1.012q.39,1.27.773,2.327.49,1.464.524,1.646l.149.773a5.987,5.987,0,0,1-1.388,1.72q-.292.257-.931.726a7.712,7.712,0,0,1-1.738.93,3.79,3.79,0,0,1-1,.29q-1.014,0-1.063-.907a6.786,6.786,0,0,1,1.005-3,1.036,1.036,0,0,0,.141-.425c0-.05-.017-.074-.051-.074q-.109,0-.332.363a6.7,6.7,0,0,0-1.121,3.349q0,1.878,1.27,1.878" transform="translate(2846.352 -2928.629)" fill="#fff"/>
    <path id="Path_59451" data-name="Path 59451" d="M1036.083,1217.672a1.471,1.471,0,0,0,.332-.972q0-.167-.432-.374a4.1,4.1,0,0,1-.814-.466q-.3,1.089-.3,1.031,0,.149.241.29.49.241.972.49" transform="translate(2803.269 -2983.246)" fill="#fff"/>
    <path id="Path_59452" data-name="Path 59452" d="M1096.591,1191.649a3.208,3.208,0,0,0,1.877-1.172q2.16-2.161,2.768-2.652a3.685,3.685,0,0,1,2.186-1.005,1.275,1.275,0,0,1,1.255.6c.039.094.08.141.125.141q.1,0,.191-.39a2.581,2.581,0,0,0,.074-.544.879.879,0,0,0-.363-.726,1.49,1.49,0,0,0-.947-.286,4.593,4.593,0,0,0-2.884,1.322q-1.246,1.23-2.5,2.46a3.916,3.916,0,0,1-2.358,1.33q-.666,0-.715-.907a6.3,6.3,0,0,1,.847-3.033.856.856,0,0,0,.116-.316c0-.038-.015-.058-.042-.058-.094,0-.183.075-.267.225a6.868,6.868,0,0,0-1,3.291,1.7,1.7,0,0,0,.483,1.214,1.519,1.519,0,0,0,1.164.5" transform="translate(2754.089 -2958.486)" fill="#fff"/>
    <path id="Path_59453" data-name="Path 59453" d="M1129.608,1175.01a6.722,6.722,0,0,0,1.97.167,1.457,1.457,0,0,1,.116.348q-.016.308-1.954,1.645a32.769,32.769,0,0,1-3.831,2.3q-1.5.764-2.9,1.372-.457.2-.457.308,0,.049.116.049a1.511,1.511,0,0,0,.482-.109,16.132,16.132,0,0,1,3.265-.8,14.116,14.116,0,0,0,2.228-1.23,20.888,20.888,0,0,0,2.618-2,3.019,3.019,0,0,0,.726-1.5c.039-.193.063-.321.074-.383q.207,0,.39-.016h0a2.489,2.489,0,0,0,1.156-.374,3.092,3.092,0,0,0,.856-.647,2.112,2.112,0,0,0,.582-1.687,2.867,2.867,0,0,0-.747-1.362,5.208,5.208,0,0,1-.814-1.063,2.267,2.267,0,0,0,.415.033c.094,0,.142-.027.142-.083s-.069-.158-.209-.274q-.606-.448-1.023-.74-.125-.116-.181.141-.067.531-.091.847-.032.091.158.091a5.228,5.228,0,0,0,1.047,1.745,5.653,5.653,0,0,1,.907,1.2q.067.157-.666.566a3.287,3.287,0,0,1-1.562.441h-.474a3.043,3.043,0,0,0-.756-1.222,1.445,1.445,0,0,0-.865-.544,1.169,1.169,0,0,0-.9.619,2.308,2.308,0,0,0-.441,1.317.827.827,0,0,0,.216.515,1.019,1.019,0,0,0,.4.324m.232-1.451a.483.483,0,0,1,.324-.087.558.558,0,0,1,.448.266q.109.158.181.258a2.654,2.654,0,0,1-1.072-.149.318.318,0,0,1,.116-.286" transform="translate(2731.495 -2944.83)" fill="#fff"/>
    <path id="Path_59454" data-name="Path 59454" d="M1173.3,1153.122l.972.5a1.52,1.52,0,0,0,.341-.981q0-.165-.432-.374a4.065,4.065,0,0,1-.823-.466q-.309,1.056-.309,1.039,0,.151.25.283" transform="translate(2690.155 -2930.807)" fill="#fff"/>
    <path id="Path_59455" data-name="Path 59455" d="M1205.909,1159.879a5.343,5.343,0,0,0,2.917-1.246,8.454,8.454,0,0,0,2.077-1.986,2.9,2.9,0,0,0,.363-.923,6.641,6.641,0,0,0,.981,2.592,1.941,1.941,0,0,0,1.364.726h.058a1.984,1.984,0,0,0,1-.479,4.09,4.09,0,0,0,.757-.773,4.255,4.255,0,0,0,1.27,1.089,1.727,1.727,0,0,0,.782.308q.2-.023.448-.441a2.358,2.358,0,0,0,.267-.708,4.156,4.156,0,0,0,2.253,1,5.6,5.6,0,0,0,1.78-.448q1.8-.689,2.311-.84a10.354,10.354,0,0,1,2.933-.448q.248,0,.5.016.109,0,.25-.363a1.79,1.79,0,0,0,.142-.624c0-.089-.017-.143-.049-.167a31.105,31.105,0,0,1-3.965-.341q-1.014-.149-2.733-.544a11.663,11.663,0,0,1,2.984-1.339l.075.216c.027.078.058.116.091.116a.121.121,0,0,0,.083-.042.469.469,0,0,0,.067-.363q.94-.266,1.578-.415a1.852,1.852,0,0,0,.406-1.1,3.021,3.021,0,0,0-.781-.84,1.9,1.9,0,0,0-1.27-.624,1.079,1.079,0,0,0-.989,1.206,3.132,3.132,0,0,0,.341,1.039,9.963,9.963,0,0,0-3.641,2,1.95,1.95,0,0,0-.474,1.039c0,.088.036.132.109.132a9.491,9.491,0,0,1,1.829.232,21.243,21.243,0,0,0,2.26.383,12.845,12.845,0,0,0-1.9.566,5.867,5.867,0,0,1-1.928.39,4.154,4.154,0,0,1-2.186-1.1l-.515-.528a.967.967,0,0,0-.725-.261,1.7,1.7,0,0,0-1.181.782.149.149,0,0,1-.19.058,2.905,2.905,0,0,1-.907.84,2.484,2.484,0,0,1-1.089.214,1.3,1.3,0,0,1-.992-.581,4.16,4.16,0,0,1-.757-1.877,26.408,26.408,0,0,0-.74-3.158q-.981-3.009-1.255-3.01a.093.093,0,0,0-.074.049l-.149.981q.39,1.27.773,2.327.49,1.462.524,1.646l.149.773a5.99,5.99,0,0,1-1.387,1.72q-.292.257-.931.725a7.733,7.733,0,0,1-1.738.931,3.791,3.791,0,0,1-1.005.29q-1.014,0-1.063-.907a6.791,6.791,0,0,1,1-3,1.025,1.025,0,0,0,.142-.424c0-.05-.017-.074-.051-.074q-.109,0-.332.363a6.7,6.7,0,0,0-1.121,3.349q0,1.877,1.27,1.877m18.494-7.913a1.925,1.925,0,0,1,1.33.726q-.708.182-1.03.283-.025-.067-.209-.425a1.028,1.028,0,0,1-.141-.424.291.291,0,0,1,.051-.167m-7.782,5.052a.727.727,0,0,1,.524.241,1.09,1.09,0,0,1,.325.705,6.336,6.336,0,0,1-1.27-.789,1.927,1.927,0,0,1,.424-.158" transform="translate(2664.288 -2928.711)" fill="#fff"/>
    <path id="Path_59456" data-name="Path 59456" d="M1360.33,1163.161l.972.5a1.566,1.566,0,0,0,.341-.981q0-.167-.441-.363a4.427,4.427,0,0,1-.824-.466q-.209.74-.3,1.023,0,.157.25.29" transform="translate(2537.052 -2939.034)" fill="#fff"/>
    <path id="Path_59457" data-name="Path 59457" d="M1322.905,1183.006c0,.027.033.042.1.042a1.94,1.94,0,0,0,.441-.074q2.652-.615,3.741-.831a19.971,19.971,0,0,0,3.648-2.279,10.592,10.592,0,0,0,2.044-1.779,3.128,3.128,0,0,0,.325-1.529,6.657,6.657,0,0,0-.225-1.452c.107.013.2.022.29.027h.158v-.009a2.769,2.769,0,0,0,1.014-.363,3.12,3.12,0,0,0,.847-.648,2.154,2.154,0,0,0,.582-1.687,2.781,2.781,0,0,0-.74-1.363,5.577,5.577,0,0,1-.824-1.063,2.287,2.287,0,0,0,.424.033c.089,0,.133-.027.133-.083s-.069-.158-.209-.274q-.6-.448-1.023-.74-.125-.107-.167.141-.067.531-.1.847c0,.06.056.091.167.091a5.22,5.22,0,0,0,1.047,1.745,6.145,6.145,0,0,1,.907,1.2q.067.158-.666.566a3.266,3.266,0,0,1-1.516.439,6.119,6.119,0,0,1-.785-.049q-.363-.432-.508-.582-.158-.191-.2.025-.093.506-.142,1.014a9.061,9.061,0,0,1,1.2,2.585,9.981,9.981,0,0,1-2.061,1.787q-.707.474-2.743,1.68a33.973,33.973,0,0,1-3.233,1.487q-1.937.815-1.937,1.088" transform="translate(2567.488 -2944.807)" fill="#fff"/>
    <path id="Path_59458" data-name="Path 59458" d="M1389.348,1208.479a2.917,2.917,0,0,0-.158.5q0,.158,1.023.726a1.77,1.77,0,0,0,.283-.557,1.7,1.7,0,0,0,.116-.465q0-.181-1.005-.682-.083,0-.257.473" transform="translate(2513.223 -2976.812)" fill="#fff"/>
    <path id="Path_59459" data-name="Path 59459" d="M1382.372,1210q.157,0,.3-.466t.087-.544a.691.691,0,0,0-.307-.249,2.338,2.338,0,0,1-.6-.448,5.532,5.532,0,0,0-.4,1.04q0,.132.448.415a1.945,1.945,0,0,0,.474.258" transform="translate(2519.559 -2977.049)" fill="#fff"/>
    <path id="Path_59460" data-name="Path 59460" d="M1411.1,1163.161l.972.5a1.564,1.564,0,0,0,.341-.981q0-.167-.441-.363a4.425,4.425,0,0,1-.823-.466q-.207.74-.3,1.023,0,.157.25.29" transform="translate(2495.492 -2939.034)" fill="#fff"/>
    <path id="Path_59461" data-name="Path 59461" d="M1373.684,1151.135c0,.027.033.042.1.042a1.941,1.941,0,0,0,.441-.075q2.652-.615,3.74-.831a19.93,19.93,0,0,0,3.648-2.276,10.592,10.592,0,0,0,2.044-1.779,3.128,3.128,0,0,0,.325-1.529,6.661,6.661,0,0,0-.225-1.451c.107.013.2.022.29.027h.158a4.871,4.871,0,0,0,1.7-.544q1.056-.582,1.52-.865a6.133,6.133,0,0,0,2.868,1.42h.033a1.831,1.831,0,0,0,1.462-.871,3.868,3.868,0,0,0,.49-2.318q-.524-4.987-.947-8.08l.441.483a.2.2,0,0,0,.109.051c.033,0,.049-.028.049-.083a6.476,6.476,0,0,0-.856-2.1q-.151-.383-.232-.383c-.022,0-.038.02-.051.058a4.925,4.925,0,0,0-.267,1.056.3.3,0,0,0,.051.182,1.345,1.345,0,0,1,.149.232q.074,1.4.216,2.511.84,6.467.84,7.23a.308.308,0,0,1-.016.133,1.151,1.151,0,0,1-.448.544,2.014,2.014,0,0,1-1,.2,2.926,2.926,0,0,1-1.286-.374q-.225-.116-.648-.383,1.014-.49,1.379-.615l.363-.889q.033-.091-.132-.181a5.774,5.774,0,0,0-1.979-.557h-.241a6.737,6.737,0,0,0-2.594.582c-.138.094-.207.161-.209.2a2.179,2.179,0,0,1-.181.47,1.525,1.525,0,0,0-.158.4.044.044,0,0,0,.012.037.044.044,0,0,0,.037.012.237.237,0,0,0,.051,0,1.592,1.592,0,0,1,.682-.182,2.457,2.457,0,0,1,1.23.64l.042.042a9.168,9.168,0,0,1-1.063.573,4.177,4.177,0,0,1-1.508.223,6.308,6.308,0,0,1-.82-.049q-.363-.432-.506-.582-.158-.19-.2.025-.091.506-.142,1.014a9.061,9.061,0,0,1,1.2,2.585,9.978,9.978,0,0,1-2.061,1.787q-.706.474-2.743,1.68a33.9,33.9,0,0,1-3.233,1.488q-1.937.814-1.936,1.088m14.026-11.018a3.563,3.563,0,0,1,.956.158q-.283.109-1.023.5-.45-.4-.64-.573a2.77,2.77,0,0,1,.708-.084" transform="translate(2525.919 -2912.937)" fill="#fff"/>
    <path id="Path_59462" data-name="Path 59462" d="M1477.756,1134.469q.158,1.645.225,2.518.532,4.771.831,7.149a6.278,6.278,0,0,1,0,1.4q-.067.532.025.531.058,0,.182-.232a4.492,4.492,0,0,0,.324-2q0-.39-.032-.805-.142-1.633-.573-5-.363-2.826-.341-3.058a3.926,3.926,0,0,0,.441.4.243.243,0,0,0,.109.051c.033,0,.049-.022.049-.067a3.884,3.884,0,0,0-.4-1.056q-.251-.544-.506-1.088-.151-.363-.232-.363c-.022,0-.038.02-.051.058a3.477,3.477,0,0,0-.267,1.056,4.265,4.265,0,0,1,.225.49" transform="translate(2440.905 -2915.303)" fill="#fff"/>
    <path id="Path_59463" data-name="Path 59463" d="M1493.813,1159.8a5.345,5.345,0,0,0,2.917-1.246,8.4,8.4,0,0,0,2.079-2,2.92,2.92,0,0,0,.363-.923,6.662,6.662,0,0,0,.981,2.594,1.942,1.942,0,0,0,1.364.725h.058a1.521,1.521,0,0,0,1.04-.437,3.864,3.864,0,0,0,.589-.965,1.047,1.047,0,0,0,.151.656,1.746,1.746,0,0,0,.682.544,1.665,1.665,0,0,0,.6.194h.051a7.266,7.266,0,0,0,2.358-.695q2.636-1.3,4.065-2.077a4.307,4.307,0,0,0,.5-.84.381.381,0,0,0,.074-.182q0-.1-.257.016-1.887.947-2.775,1.43h-.232a3.18,3.18,0,0,1-2.112-.865q-.872-.763-.873-1.313,0-.307,1.123-.682a5.964,5.964,0,0,1,1.828-.363,4.6,4.6,0,0,1,1.047.2.74.74,0,0,0,.167.025c.062,0,.091-.02.091-.058q0-.225-.715-.566a3.754,3.754,0,0,0-1.761-.383,2.138,2.138,0,0,0-1.522.682,2.319,2.319,0,0,0-.7,1.7q0,1.3,1.936,2.411a5.862,5.862,0,0,1-2.242.374,1.318,1.318,0,0,1-.584-.229,1.355,1.355,0,0,1-.477-.4,1.968,1.968,0,0,1-.138-.287.993.993,0,0,0,.067-.308q0-.325-.415.216-.033.041-.209.383a1.032,1.032,0,0,1-.249.363,1.964,1.964,0,0,1-1.112.265,1.281,1.281,0,0,1-1-.58,4.164,4.164,0,0,1-.756-1.878,26.392,26.392,0,0,0-.74-3.158q-.981-3.009-1.255-3.009a.093.093,0,0,0-.074.051l-.149.981q.39,1.27.772,2.327.49,1.464.524,1.645l.149.773a5.989,5.989,0,0,1-1.388,1.72q-.292.258-.93.726a7.714,7.714,0,0,1-1.738.931,3.786,3.786,0,0,1-1,.29q-1.014,0-1.065-.907a6.778,6.778,0,0,1,1.006-3,1.031,1.031,0,0,0,.142-.424c0-.051-.016-.074-.049-.074q-.109,0-.332.363a6.712,6.712,0,0,0-1.123,3.348q0,1.878,1.27,1.878" transform="translate(2428.604 -2928.629)" fill="#fff"/>
    <path id="Path_59464" data-name="Path 59464" d="M1546.323,1217.672a1.471,1.471,0,0,0,.332-.972q0-.167-.432-.374a4.092,4.092,0,0,1-.815-.466q-.3,1.088-.3,1.03,0,.149.241.29.49.241.972.49" transform="translate(2385.587 -2983.246)" fill="#fff"/>
    <path id="Path_59465" data-name="Path 59465" d="M1620.46,1194.55a2.717,2.717,0,0,0,.607.167q.182-.042.3-.544a2.806,2.806,0,0,0,.1-.647q0-.151-.641-.5a2.749,2.749,0,0,0-.725-.316q-.125,0-.274.486a2.82,2.82,0,0,0-.151.785.288.288,0,0,0,.026.141,1.453,1.453,0,0,0,.756.432" transform="translate(2324.547 -2964.296)" fill="#fff"/>
    <path id="Path_59466" data-name="Path 59466" d="M1650.965,1181.773a7.455,7.455,0,0,0,2.792-1.451,22.206,22.206,0,0,0,2.244-1.613,1.779,1.779,0,0,0,.363-.415,2.61,2.61,0,0,0,.216-.766,2.519,2.519,0,0,0,.033-.406,1.552,1.552,0,0,0-.583-1.38,13.307,13.307,0,0,0-1.562-.805,6.258,6.258,0,0,1-1.745-1.156q.582.032.682-.074t-.216-.249q-.058-.032-.132-.067l-1.2-.573q-.142-.075-.182-.042a.27.27,0,0,0-.025.132v.706q0,.274.133.348a1.291,1.291,0,0,1,.308.232,5.737,5.737,0,0,0,1.388,1.355,10.346,10.346,0,0,0,1.346.726,7.569,7.569,0,0,1,1.2.682q.308.225.308.383a.317.317,0,0,1-.133.225,24.886,24.886,0,0,1-2.3,1.6,7.536,7.536,0,0,1-2.984,1.429.841.841,0,0,1-.6-.225.905.905,0,0,1-.3-.74,7.484,7.484,0,0,1,.363-1.912.927.927,0,0,0,.058-.267c0-.038-.008-.058-.025-.058q-.058,0-.167.274a6.585,6.585,0,0,0-.516,2.485q0,1.613,1.223,1.613" transform="translate(2299.945 -2947.969)" fill="#fff"/>
    <path id="Path_59467" data-name="Path 59467" d="M1704.22,1194.55a2.717,2.717,0,0,0,.608.167q.181-.042.3-.544a2.813,2.813,0,0,0,.1-.647q0-.151-.641-.5a2.753,2.753,0,0,0-.726-.316q-.125,0-.274.486a2.816,2.816,0,0,0-.151.785.29.29,0,0,0,.025.141,1.457,1.457,0,0,0,.756.432" transform="translate(2255.981 -2964.296)" fill="#fff"/>
    <path id="Path_59468" data-name="Path 59468" d="M1739.566,1134.414a3.855,3.855,0,0,0,.441.4.239.239,0,0,0,.107.051c.033,0,.051-.021.051-.067a3.9,3.9,0,0,0-.4-1.056q-.248-.544-.508-1.088-.151-.363-.232-.363c-.022,0-.038.02-.049.058a3.5,3.5,0,0,0-.267,1.056,4.225,4.225,0,0,1,.225.49q.157,1.645.225,2.518.532,4.771.831,7.147a6.249,6.249,0,0,1,0,1.4q-.067.532.025.532.058,0,.181-.232a4.49,4.49,0,0,0,.325-2q0-.39-.033-.805-.141-1.633-.573-5-.363-2.826-.341-3.058" transform="translate(2227.112 -2914.835)" fill="#fff"/>
    <path id="Path_59469" data-name="Path 59469" d="M1733.047,1110.157a7.523,7.523,0,0,1,1.281-.831,4.651,4.651,0,0,0,.889-.544.742.742,0,0,0,.232-.557c0-.05-.017-.072-.051-.067a3.941,3.941,0,0,1-1.246.606.516.516,0,1,1-.432-.889.6.6,0,0,1,.191-.067.227.227,0,0,1,.216.125.966.966,0,0,0,.19.257q.107,0,.207-.274a1.11,1.11,0,0,0,.084-.308q0-.448-.349-.448t-.894.577a1.614,1.614,0,0,0-.519.943.566.566,0,0,0,.225.4.761.761,0,0,0,.448.219,1.642,1.642,0,0,0-.49.332q-.112.148-.208.307a.462.462,0,0,0-.091.225q0,.241.316-.016" transform="translate(2232.001 -2894.265)" fill="#fff"/>
    <path id="Path_59470" data-name="Path 59470" d="M699.041,1338.55H696.48v7.031h.662v-3.1h1.507c1.3,0,2.692-.4,2.692-1.959,0-1.056-.472-1.968-2.3-1.968m-.363,3.365h-1.527v-2.792h1.718c1.255,0,1.814.452,1.814,1.346,0,1.187-.773,1.451-2.008,1.451" transform="translate(3080.275 -3083.681)" fill="#fff"/>
    <path id="Path_59471" data-name="Path 59471" d="M729.812,1349.775h-.02v-.943h-.582v5.052h.582V1351.4c0-1.136.341-2.11,1.667-2.079v-.633a1.521,1.521,0,0,0-1.647,1.088" transform="translate(3053.483 -3091.981)" fill="#fff"/>
    <path id="Path_59472" data-name="Path 59472" d="M747.5,1348.69c-1.556,0-2.34,1.185-2.34,2.663a2.359,2.359,0,0,0,2.34,2.672c1.417.02,2.34-1.065,2.34-2.672,0-1.476-.744-2.663-2.34-2.663m0,4.8c-1.125,0-1.718-.874-1.718-2.139,0-1.088.5-2.14,1.718-2.14s1.718.945,1.718,2.14c0,1.088-.492,2.139-1.718,2.139" transform="translate(3040.426 -3091.981)" fill="#fff"/>
    <path id="Path_59473" data-name="Path 59473" d="M774.813,1339.147v.8h-.753v.482h.753V1345h.593v-4.572h.974v-.482h-.974v-.622c0-.462.031-.954.622-.954a1.566,1.566,0,0,1,.352.051v-.544a3.657,3.657,0,0,0-.492-.031c-.784,0-1.074.491-1.074,1.306" transform="translate(3016.768 -3083.107)" fill="#fff"/>
    <path id="Path_59474" data-name="Path 59474" d="M792.71,1348.69a2.411,2.411,0,0,0-2.32,2.681c0,1.486.713,2.652,2.32,2.652a2.116,2.116,0,0,0,2.189-1.7h-.653a1.489,1.489,0,0,1-1.536,1.165c-1.136,0-1.7-.907-1.7-2h3.927c.009-1.828-.834-2.8-2.229-2.8m0,.522a1.6,1.6,0,0,1,1.6,1.789h-3.292a1.776,1.776,0,0,1,1.7-1.789" transform="translate(3003.401 -3091.981)" fill="#fff"/>
    <path id="Path_59475" data-name="Path 59475" d="M821.094,1350.077c0-.522.392-.874,1.136-.874s1.27.29,1.366,1.065h.6a1.711,1.711,0,0,0-1.959-1.587c-1.125,0-1.778.593-1.778,1.451,0,2,3.245.954,3.245,2.42,0,.482-.4.934-1.246.934a1.313,1.313,0,0,1-1.516-1.185h-.593a1.767,1.767,0,0,0,1.919,1.718c1.194,0,2.059-.5,2.059-1.477,0-1.948-3.234-1.088-3.234-2.462" transform="translate(2978.875 -3091.973)" fill="#fff"/>
    <path id="Path_59476" data-name="Path 59476" d="M848,1350.077c0-.522.392-.874,1.135-.874s1.27.29,1.366,1.065h.6a1.711,1.711,0,0,0-1.959-1.587c-1.125,0-1.778.593-1.778,1.451,0,2,3.245.954,3.245,2.42,0,.482-.4.934-1.246.934a1.313,1.313,0,0,1-1.517-1.185h-.593a1.767,1.767,0,0,0,1.919,1.718c1.194,0,2.059-.5,2.059-1.477,0-1.948-3.234-1.088-3.234-2.462" transform="translate(2956.847 -3091.973)" fill="#fff"/>
    <path id="Path_59477" data-name="Path 59477" d="M876.07,1348.69c-1.556,0-2.34,1.185-2.34,2.663a2.359,2.359,0,0,0,2.34,2.672c1.417.02,2.34-1.065,2.34-2.672,0-1.476-.744-2.663-2.34-2.663m0,4.8c-1.125,0-1.718-.874-1.718-2.139,0-1.088.5-2.14,1.718-2.14s1.718.945,1.718,2.14c0,1.088-.492,2.139-1.718,2.139" transform="translate(2935.178 -3091.981)" fill="#fff"/>
    <path id="Path_59478" data-name="Path 59478" d="M906.222,1349.775h-.02v-.943h-.582v5.052h.582V1351.4c0-1.136.341-2.11,1.667-2.079v-.633a1.521,1.521,0,0,0-1.647,1.088" transform="translate(2909.073 -3091.981)" fill="#fff"/>
    <rect id="Rectangle_2188" data-name="Rectangle 2188" width="0.713" height="0.863" transform="translate(3818.209 -1738.963)" fill="#fff"/>
    <rect id="Rectangle_2189" data-name="Rectangle 2189" width="0.664" height="7.031" transform="translate(3820.951 -1745.13)" fill="#fff"/>
    <path id="Path_59479" data-name="Path 59479" d="M952.644,1350.077c0-.522.392-.874,1.136-.874s1.27.29,1.366,1.065h.6a1.711,1.711,0,0,0-1.959-1.587c-1.125,0-1.778.593-1.778,1.451,0,2,3.245.954,3.245,2.42,0,.482-.4.934-1.246.934a1.313,1.313,0,0,1-1.516-1.185H951.9a1.767,1.767,0,0,0,1.919,1.718c1.194,0,2.059-.5,2.059-1.477,0-1.948-3.234-1.088-3.234-2.462" transform="translate(2871.188 -3091.973)" fill="#fff"/>
    <rect id="Rectangle_2190" data-name="Rectangle 2190" width="0.582" height="7.031" transform="translate(3828.314 -1745.13)" fill="#fff"/>
    <path id="Path_59480" data-name="Path 59480" d="M994.937,1353.009v-2.752c0-1.165-.813-1.568-1.838-1.568-1.088,0-2,.472-2.079,1.667h.593c.111-.884.662-1.145,1.476-1.145.907,0,1.255.432,1.255,1.025,0,.191-.011.443-.21.531a2.715,2.715,0,0,1-.773.161l-.8.111c-1.186.161-1.769.662-1.769,1.527a1.492,1.492,0,0,0,1.687,1.451,2.476,2.476,0,0,0,1.877-.843c0,.341.091.7.472.753a1.231,1.231,0,0,0,.261.031,1.589,1.589,0,0,0,.463-.1v-.462c-.5.191-.613.071-.613-.392m-.593-.994c0,1.014-.907,1.477-1.838,1.477-.562,0-1.088-.281-1.088-.907,0-.693.522-1.005,1.426-1.074a4.919,4.919,0,0,0,1.507-.281Z" transform="translate(2839.353 -3091.981)" fill="#fff"/>
    <path id="Path_59481" data-name="Path 59481" d="M1026.916,1348.68a1.73,1.73,0,0,0-1.647.974,1.4,1.4,0,0,0-1.488-.974,1.721,1.721,0,0,0-1.567.894h-.011v-.753h-.593v5.052h.593v-2.721a2.378,2.378,0,0,1,.332-1.366,1.418,1.418,0,0,1,1.136-.582c.834,0,1.088.443,1.088,1.176v3.5h.593v-2.721a2.378,2.378,0,0,1,.332-1.366,1.419,1.419,0,0,1,1.136-.583c.834,0,1.088.443,1.088,1.176v3.5h.582v-3.194c0-1.014-.2-2-1.567-2" transform="translate(2814.124 -3091.971)" fill="#fff"/>
    <rect id="Rectangle_2191" data-name="Rectangle 2191" width="0.642" height="0.874" transform="translate(3844.013 -1745.13)" fill="#fff"/>
    <rect id="Rectangle_2192" data-name="Rectangle 2192" width="0.582" height="5.052" transform="translate(3844.044 -1743.151)" fill="#fff"/>
    <path id="Path_59482" data-name="Path 59482" d="M1079.878,1353.492c-1.216,0-1.7-1.065-1.7-2.13s.491-2.149,1.7-2.149a1.49,1.49,0,0,1,1.507,1.206h.593a1.884,1.884,0,0,0-2.1-1.729,2.409,2.409,0,0,0-2.32,2.672c0,1.5.713,2.661,2.32,2.661a2.081,2.081,0,0,0,2.177-1.888h-.622a1.48,1.48,0,0,1-1.556,1.357" transform="translate(2768.323 -3091.981)" fill="#fff"/>
    <path id="Path_59483" data-name="Path 59483" d="M431.632,279.024h-4.159V276h-.662v7.031h.662v-3.445h4.159v3.445h.662V276h-.662Z" transform="translate(3427.368 -2021.13)" fill="#fff"/>
    <rect id="Rectangle_2193" data-name="Rectangle 2193" width="0.642" height="0.874" transform="translate(3861.209 -1745.13)" fill="#fff"/>
    <rect id="Rectangle_2194" data-name="Rectangle 2194" width="0.582" height="5.052" transform="translate(3861.24 -1743.151)" fill="#fff"/>
    <path id="Path_59484" data-name="Path 59484" d="M1173.033,1350.077c0-.522.392-.874,1.136-.874s1.27.29,1.366,1.065h.6a1.711,1.711,0,0,0-1.959-1.587c-1.125,0-1.778.593-1.778,1.451,0,2,3.245.954,3.245,2.42,0,.482-.4.934-1.246.934a1.313,1.313,0,0,1-1.517-1.185h-.593a1.767,1.767,0,0,0,1.919,1.718c1.193,0,2.059-.5,2.059-1.477,0-1.948-3.234-1.088-3.234-2.462" transform="translate(2690.778 -3091.973)" fill="#fff"/>
    <path id="Path_59485" data-name="Path 59485" d="M1199.106,1347.063V1343.6h.943v-.483h-.943v-1.406h-.593v1.406h-.713v.483h.713v3.7c0,.753.312,1.014.907,1.014a2.892,2.892,0,0,0,.673-.122v-.482a2,2,0,0,1-.483.071c-.492,0-.5-.2-.5-.713" transform="translate(2669.895 -3086.268)" fill="#fff"/>
    <path id="Path_59486" data-name="Path 59486" d="M1216.05,1348.69c-1.556,0-2.34,1.185-2.34,2.663a2.359,2.359,0,0,0,2.34,2.672c1.417.02,2.34-1.065,2.34-2.672,0-1.476-.744-2.663-2.34-2.663m0,4.8c-1.125,0-1.718-.874-1.718-2.139,0-1.088.5-2.14,1.718-2.14s1.718.945,1.718,2.14c0,1.088-.491,2.139-1.718,2.139" transform="translate(2656.871 -3091.981)" fill="#fff"/>
    <path id="Path_59487" data-name="Path 59487" d="M1246.212,1349.775h-.02v-.943h-.582v5.052h.582V1351.4c0-1.136.341-2.11,1.667-2.079v-.633a1.52,1.52,0,0,0-1.647,1.088" transform="translate(2630.758 -3091.981)" fill="#fff"/>
    <path id="Path_59488" data-name="Path 59488" d="M1262.7,1353.8l-1.618-4.339h-.664l1.968,5.094c-.23.443-.321,1.4-.985,1.4a2.645,2.645,0,0,1-.492-.06v.544a2.326,2.326,0,0,0,.544.071c.8,0,1.125-.773,1.607-2.059l1.889-4.983h-.642Z" transform="translate(2618.634 -3092.611)" fill="#fff"/>
    <rect id="Rectangle_2195" data-name="Rectangle 2195" width="2.471" height="0.602" transform="translate(3884.162 -1740.942)" fill="#fff"/>
    <rect id="Rectangle_2196" data-name="Rectangle 2196" width="0.642" height="0.874" transform="translate(3891.685 -1737.566)" fill="#fff"/>
    <rect id="Rectangle_2197" data-name="Rectangle 2197" width="0.642" height="0.874" transform="translate(3890.54 -1737.566)" fill="#fff"/>
    <path id="Path_59489" data-name="Path 59489" d="M1321.548,1349.63h-1.888v3.768a1.392,1.392,0,0,0,.131.633h-2.13v-3.4h-1.137a2.269,2.269,0,0,0-1.939.834,3.829,3.829,0,0,0-.573,2.311v.25h-6.267v-1.25a3.248,3.248,0,0,1,.443-1.939,1.642,1.642,0,0,1,1.437-.573v-.633a2.269,2.269,0,0,0-1.939.834,3.829,3.829,0,0,0-.573,2.311v1.877h7.533v-.874a3.247,3.247,0,0,1,.443-1.939,1.642,1.642,0,0,1,1.437-.573h.5v3.385h7.031v-1.876a3.814,3.814,0,0,0-.573-2.311,2.294,2.294,0,0,0-1.939-.834m1.877,4.4h-2.51c-.452,0-.623-.182-.623-.633v-3.134h1.255a1.659,1.659,0,0,1,1.437.573,3.3,3.3,0,0,1,.435,1.941Z" transform="translate(2580.413 -3092.751)" fill="#fff"/>
    <path id="Path_59490" data-name="Path 59490" d="M1416.985,1344.326c0,.452-.181.633-.633.633h-.744a1.542,1.542,0,0,0,.12-.633v-3.265h-.622v3.265c0,.452-.182.633-.633.633h-.753a1.546,1.546,0,0,0,.12-.633v-2.763h-.622v2.763c0,.452-.181.633-.633.633H1411.1a1.543,1.543,0,0,0,.131-.633v-5.776h-.62v5.776c0,.452-.181.633-.633.633h-1.386l-1.165-5.4-.613.122,1.135,5.284h-1.857v.622h10.265a1.142,1.142,0,0,0,1.255-1.255v-3.768h-.622Z" transform="translate(2499.388 -3083.681)" fill="#fff"/>
    <path id="Path_59491" data-name="Path 59491" d="M1479.609,1344.334c0,.452-.182.633-.633.633h-1.386l-1.165-5.4-.613.122,1.136,5.284h-1.858v.622h3.887a1.146,1.146,0,0,0,1.255-1.255v-5.776h-.624Z" transform="translate(2442.906 -3083.689)" fill="#fff"/>
    <path id="Path_59492" data-name="Path 59492" d="M1480.321,1382.147v.252h2.2v-.5h-1.658a1.518,1.518,0,0,1,.471-.813,1.764,1.764,0,0,1,1.185-.491v-.5a2.222,2.222,0,0,0-1.527.633,1.994,1.994,0,0,0-.673,1.426" transform="translate(2438.624 -3117.685)" fill="#fff"/>
    <rect id="Rectangle_2198" data-name="Rectangle 2198" width="0.622" height="7.031" transform="translate(3924.148 -1745.13)" fill="#fff"/>
    <rect id="Rectangle_2199" data-name="Rectangle 2199" width="0.642" height="0.874" transform="translate(3931.542 -1744.597)" fill="#fff"/>
    <rect id="Rectangle_2200" data-name="Rectangle 2200" width="0.642" height="0.874" transform="translate(3934.987 -1737.566)" fill="#fff"/>
    <rect id="Rectangle_2201" data-name="Rectangle 2201" width="0.642" height="0.874" transform="translate(3936.131 -1737.566)" fill="#fff"/>
    <path id="Path_59493" data-name="Path 59493" d="M1539.943,1353.4c0,.452-.182.633-.633.633h-1.377a5.887,5.887,0,0,0-.814-2.842,3.3,3.3,0,0,0-2.933-1.556v.633a2.68,2.68,0,0,1,2.411,1.27,5.328,5.328,0,0,1,.713,2.5H1532a3.4,3.4,0,0,0,.544,1.814,2.287,2.287,0,0,0,1.939.823h.8v-.626h-.8a1.658,1.658,0,0,1-1.437-.573,2.091,2.091,0,0,1-.341-.812h6.59a1.146,1.146,0,0,0,1.255-1.255v-2.763h-.622Z" transform="translate(2396.319 -3092.751)" fill="#fff"/>
    <path id="Path_59494" data-name="Path 59494" d="M1583,1359.822c0,.443-.162.6-.6.6h-.4v.642h.4a1.124,1.124,0,0,0,1.235-1.246v-4.66H1583Z" transform="translate(2355.389 -3097.277)" fill="#fff"/>
    <rect id="Rectangle_2202" data-name="Rectangle 2202" width="0.642" height="0.874" transform="translate(3942.529 -1743.594)" fill="#fff"/>
    <rect id="Rectangle_2203" data-name="Rectangle 2203" width="0.642" height="0.874" transform="translate(3941.385 -1743.594)" fill="#fff"/>
    <path id="Path_59495" data-name="Path 59495" d="M1601.26,1344.326c0,.452-.181.633-.633.633h-1.366v-3.4h-.622v3.4h-1.377c-.451,0-.633-.181-.633-.633v-5.776H1596v5.776a1.126,1.126,0,0,0,1.054,1.245v.013h3.566a1.147,1.147,0,0,0,1.255-1.255v-5.776h-.615Z" transform="translate(2343.928 -3083.681)" fill="#fff"/>
    <rect id="Rectangle_2204" data-name="Rectangle 2204" width="0.622" height="7.031" transform="translate(3946.809 -1745.13)" fill="#fff"/>
    <rect id="Rectangle_2205" data-name="Rectangle 2205" width="0.642" height="0.874" transform="translate(3951.991 -1744.597)" fill="#fff"/>
    <path id="Path_59496" data-name="Path 59496" d="M1657,1349.63v.633a2.68,2.68,0,0,1,2.411,1.27,5.348,5.348,0,0,1,.713,2.5H1657v.622h3.768a6.423,6.423,0,0,0-.835-3.465,3.3,3.3,0,0,0-2.933-1.557" transform="translate(2293.994 -3092.751)" fill="#fff"/>
    <rect id="Rectangle_2206" data-name="Rectangle 2206" width="0.642" height="0.874" transform="translate(3957.216 -1743.594)" fill="#fff"/>
    <rect id="Rectangle_2207" data-name="Rectangle 2207" width="0.642" height="0.874" transform="translate(3958.36 -1743.594)" fill="#fff"/>
    <path id="Path_59497" data-name="Path 59497" d="M1692.288,1344.326c0,.452-.181.633-.633.633h-.744a1.546,1.546,0,0,0,.12-.633v-3.265h-.622v3.265c0,.452-.181.633-.633.633h-.753a1.548,1.548,0,0,0,.12-.633v-2.763h-.622v2.763c0,.452-.181.633-.633.633h-1.355v-3.4h-.622v3.4h-1.375c-.452,0-.633-.181-.633-.633v-5.776h-.622v5.776a1.126,1.126,0,0,0,1.054,1.245v.013h7.323a1.142,1.142,0,0,0,1.255-1.255v-3.768h-.622Z" transform="translate(2272.481 -3083.681)" fill="#fff"/>
    <rect id="Rectangle_2208" data-name="Rectangle 2208" width="0.622" height="7.031" transform="translate(3966.899 -1745.13)" fill="#fff"/>
    <path id="Path_59498" data-name="Path 59498" d="M1742.5,1323.512V1323a2.223,2.223,0,0,0-1.528.633,2,2,0,0,0-.673,1.426v.252h2.2v-.5h-1.658a1.518,1.518,0,0,1,.472-.813,1.763,1.763,0,0,1,1.185-.492" transform="translate(2225.804 -3070.951)" fill="#fff"/>
    <path id="Path_59499" data-name="Path 59499" d="M699.175,1269.953c-.884-.078-1.152-.169-.916-.873.112-.346.268-.771.392-1.117h2.177c.167.448.346.951.459,1.286.156.481.156.6-.544.7v.413h3.24v-.413c-.726-.089-.827-.169-1.241-1.208-.726-1.866-1.487-3.856-2.2-5.8l-.544.1-2.326,5.779c-.381.94-.559,1.039-1.27,1.128v.414h2.775Zm.582-4.931.862,2.371h-1.778c.279-.816.593-1.565.916-2.371" transform="translate(3080.341 -3021.786)" fill="#fff"/>
    <path id="Path_59500" data-name="Path 59500" d="M738.947,1268.207a5.3,5.3,0,0,0,2,.4,2.9,2.9,0,0,0,2.941-2.873,2.277,2.277,0,0,0-2.269-2.358,1.958,1.958,0,0,0-.795.212l-.414.182v-3.142a15.056,15.056,0,0,1-2.135.381v.381c.626.045.693.134.693.771v5.176c0,.279,0,.593-.011.86m1.451-4.013a1.672,1.672,0,0,1,.513-.078c.671,0,1.375.559,1.375,2,0,1.375-.435,2.036-1.029,2.036a.948.948,0,0,1-.795-.515,1.1,1.1,0,0,1-.067-.381Z" transform="translate(3046.066 -3019.895)" fill="#fff"/>
    <path id="Path_59501" data-name="Path 59501" d="M777.239,1268.686a18.482,18.482,0,0,1,2.191-.435v-.363l-.247-.034c-.424-.056-.492-.112-.492-.715v-6.429a15.431,15.431,0,0,1-2.2.379v.363c.693.089.749.145.749.738v1.293a2.526,2.526,0,0,0-.448-.033,2.91,2.91,0,0,0-3.1,2.75,2.407,2.407,0,0,0,2.3,2.482,1.041,1.041,0,0,0,.559-.2c.2-.134.481-.3.682-.435Zm-.615-.873c-.5-.011-1.319-.544-1.319-2.012,0-1.622.749-1.856,1.088-1.856a.869.869,0,0,1,.838.559v3.118a1.027,1.027,0,0,1-.615.181" transform="translate(3017.069 -3019.961)" fill="#fff"/>
    <path id="Path_59502" data-name="Path 59502" d="M810.669,1281.29c.738-.167,1.451-.314,2.124-.4v-.363l-.247-.022c-.363-.034-.424-.156-.424-.738v-3.645a20.946,20.946,0,0,1-2.159.181v.363l.336.067c.314.056.363.145.363.66v2.7a1,1,0,0,1-.805.325c-.392,0-.76-.247-.76-.972v-1.633c0-.637.011-1.219.033-1.689a20.839,20.839,0,0,1-2.079.181v.363l.234.067c.3.078.363.134.363.648v2.314a1.4,1.4,0,0,0,1.464,1.6,2.471,2.471,0,0,0,1.544-.76Z" transform="translate(2989.763 -3032.575)" fill="#fff"/>
    <path id="Path_59503" data-name="Path 59503" d="M841.232,1268.146v.381H844v-.381c-.637-.078-.671-.123-.671-.86v-6.6a11.522,11.522,0,0,1-2.09.379v.363c.582.123.648.181.648.771v5.079c0,.7-.022.76-.66.86" transform="translate(2961.783 -3019.944)" fill="#fff"/>
    <path id="Path_59504" data-name="Path 59504" d="M860.159,1277.11a.679.679,0,0,0,.66.582.443.443,0,0,0,.481-.379,2.129,2.129,0,0,1,.269-.738.545.545,0,0,1,.448-.223c.481,0,.693.325.693.907v.492a9.506,9.506,0,0,1-1.8.738c-.593.234-.86.5-.86,1.088a1.469,1.469,0,0,0,1.52,1.451,4,4,0,0,0,1.185-.648,1.126,1.126,0,0,0,.29.414,1.028,1.028,0,0,0,.693.234l1.2-.637-.123-.381a.84.84,0,0,1-.346.089c-.182,0-.363-.134-.363-.671v-1.934a1.515,1.515,0,0,0-.615-1.375,1.963,1.963,0,0,0-1.152-.325,5.5,5.5,0,0,0-1.789.795c-.258.182-.392.325-.392.526m2.549,2.873a.63.63,0,0,1-.492.182.761.761,0,0,1-.682-.849.808.808,0,0,1,.544-.76l.626-.347Z" transform="translate(2946.377 -3032.308)" fill="#fff"/>
    <path id="Path_59505" data-name="Path 59505" d="M889.025,1280.321h4.014c.1-.279.279-.962.5-1.587l-.363-.134c-.57,1.074-.951,1.219-1.732,1.219h-.715c.849-1.5,1.622-2.828,2.482-4.3l-.113-.156h-2.8c-.435,0-.6-.067-.682-.257h-.268c-.113.569-.269,1.219-.414,1.721l.381.134c.47-1.04.76-1.089,1.52-1.089h.582c-.862,1.487-1.609,2.8-2.54,4.259Z" transform="translate(2922.777 -3031.74)" fill="#fff"/>
    <path id="Path_59506" data-name="Path 59506" d="M920.06,1264a.814.814,0,0,0,.805.794.8.8,0,0,0,.816-.793.785.785,0,0,0-.805-.794.8.8,0,0,0-.816.794" transform="translate(2897.253 -3022.006)" fill="#fff"/>
    <path id="Path_59507" data-name="Path 59507" d="M919.4,1279.539v-3.809a12.213,12.213,0,0,1-2.024.4v.363c.526.067.582.113.582.86v2.177c0,.795-.067.838-.671.916v.379H920.1v-.379c-.648-.078-.693-.156-.693-.916" transform="translate(2899.52 -3032.256)" fill="#fff"/>
    <path id="Path_59508" data-name="Path 59508" d="M940.374,1278.734l-.363-.134c-.57,1.074-.951,1.219-1.732,1.219h-.715c.849-1.5,1.622-2.828,2.481-4.3l-.112-.156h-2.8c-.435,0-.6-.067-.682-.257h-.268c-.113.569-.268,1.219-.414,1.721l.381.134c.47-1.04.76-1.089,1.52-1.089h.582c-.862,1.487-1.609,2.8-2.54,4.259l.145.181h4.014c.1-.279.279-.961.5-1.587" transform="translate(2884.441 -3031.74)" fill="#fff"/>
    <path id="Path_59509" data-name="Path 59509" d="M980,1280.269c-.414-.067-.481-.124-.481-.749v-2.75a1.4,1.4,0,0,1,.86-.336c.414,0,.726.257.726,1.05v2.035c0,.648-.045.682-.544.749v.381h2.516v-.381c-.513-.067-.544-.124-.544-.749v-2.258c0-.169-.011-.336-.022-.47a1.271,1.271,0,0,1,.827-.347c.346,0,.782.167.782,1.089v1.933c0,.682-.078.726-.526.795v.381h2.56v-.381c-.544-.089-.6-.134-.6-.749v-2.177c0-1.141-.513-1.8-1.487-1.8a1.71,1.71,0,0,0-.894.3c-.279.181-.5.346-.771.544a1.283,1.283,0,0,0-1.252-.849,1.777,1.777,0,0,0-.951.347c-.234.145-.435.291-.682.459v-.838a11.8,11.8,0,0,1-1.968.424v.363c.526.078.544.181.544.805v2.371c0,.671-.034.715-.648.795v.381H980Z" transform="translate(2850.281 -3032.068)" fill="#fff"/>
    <path id="Path_59510" data-name="Path 59510" d="M1029.14,1278.432a2.634,2.634,0,1,0,5.266-.122,2.485,2.485,0,0,0-2.57-2.527,2.637,2.637,0,0,0-2.694,2.65m2.559-2.2c.693,0,1.089.851,1.089,2.4,0,1.632-.459,1.923-.884,1.923-.7,0-1.163-1.063-1.163-2.449s.47-1.877.95-1.877" transform="translate(2807.96 -3032.298)" fill="#fff"/>
    <path id="Path_59511" data-name="Path 59511" d="M1063.815,1267.369v-2.8a1.143,1.143,0,0,1,.816-.325c.435,0,.794.29.794,1.152v1.968c0,.6-.034.682-.526.76v.381h2.594v-.381c-.544-.089-.615-.1-.615-.805v-2.046c0-1.23-.583-1.867-1.555-1.867a2.309,2.309,0,0,0-1.509.725v-3.466a11.4,11.4,0,0,1-2.135.381v.363c.626.1.693.223.693.738v5.176c0,.7-.1.738-.647.805v.381h2.661v-.381c-.513-.078-.57-.156-.57-.76" transform="translate(2781.323 -3019.928)" fill="#fff"/>
    <path id="Path_59512" data-name="Path 59512" d="M1101.925,1279.97a.834.834,0,0,1-.346.089c-.182,0-.363-.134-.363-.671v-1.934a1.515,1.515,0,0,0-.615-1.375,1.963,1.963,0,0,0-1.152-.325,5.5,5.5,0,0,0-1.788.795c-.258.181-.392.325-.392.526a.679.679,0,0,0,.66.583.443.443,0,0,0,.481-.379,2.133,2.133,0,0,1,.269-.738.543.543,0,0,1,.448-.223c.481,0,.693.325.693.907v.492a9.48,9.48,0,0,1-1.8.738c-.593.234-.86.5-.86,1.088a1.469,1.469,0,0,0,1.52,1.451,4,4,0,0,0,1.184-.647,1.122,1.122,0,0,0,.29.414,1.027,1.027,0,0,0,.693.234l1.2-.637Zm-2.1-.022a.629.629,0,0,1-.492.181.761.761,0,0,1-.682-.849.807.807,0,0,1,.544-.76l.626-.347Z" transform="translate(2752.279 -3032.275)" fill="#fff"/>
    <path id="Path_59513" data-name="Path 59513" d="M1132.233,1280.3v.381h2.56v-.381c-.544-.089-.6-.134-.6-.749v-2.177c0-1.141-.514-1.8-1.488-1.8a1.718,1.718,0,0,0-.894.3c-.279.181-.5.347-.771.544a1.282,1.282,0,0,0-1.252-.849,1.775,1.775,0,0,0-.951.346c-.234.145-.435.29-.682.459v-.838a11.727,11.727,0,0,1-1.968.424v.363c.526.078.544.182.544.806v2.371c0,.671-.033.715-.648.795v.381h2.559v-.381c-.413-.067-.481-.123-.481-.749V1276.8a1.4,1.4,0,0,1,.862-.336c.413,0,.725.258.725,1.051v2.035c0,.648-.045.682-.544.749v.381h2.516v-.381c-.514-.067-.544-.123-.544-.749v-2.258c0-.169-.011-.335-.022-.47a1.272,1.272,0,0,1,.827-.346c.347,0,.782.167.782,1.088v1.934c0,.682-.078.726-.526.795" transform="translate(2728.604 -3032.1)" fill="#fff"/>
    <path id="Path_59514" data-name="Path 59514" d="M1183.543,1280.3v.381h2.559v-.381c-.544-.089-.6-.134-.6-.749v-2.177c0-1.141-.513-1.8-1.488-1.8a1.717,1.717,0,0,0-.894.3c-.279.181-.5.347-.771.544a1.282,1.282,0,0,0-1.251-.849,1.775,1.775,0,0,0-.951.346c-.234.145-.435.29-.682.459v-.838a11.766,11.766,0,0,1-1.968.425v.363c.526.078.544.182.544.806v2.371c0,.671-.033.715-.648.795v.381h2.559v-.381c-.414-.067-.481-.123-.481-.749V1276.8a1.4,1.4,0,0,1,.862-.336c.414,0,.726.258.726,1.051v2.035c0,.648-.045.682-.544.749v.381h2.516v-.381c-.513-.067-.544-.123-.544-.749v-2.258c0-.169-.011-.335-.022-.47a1.271,1.271,0,0,1,.827-.346c.346,0,.782.167.782,1.088v1.934c0,.682-.078.726-.526.795" transform="translate(2686.602 -3032.1)" fill="#fff"/>
    <path id="Path_59515" data-name="Path 59515" d="M1233.808,1280.361l-.123-.381a.833.833,0,0,1-.347.089c-.181,0-.363-.134-.363-.671v-1.934a1.516,1.516,0,0,0-.615-1.375,1.964,1.964,0,0,0-1.152-.325,5.5,5.5,0,0,0-1.789.795c-.257.181-.392.325-.392.526a.679.679,0,0,0,.66.582.443.443,0,0,0,.481-.379,2.129,2.129,0,0,1,.268-.738.544.544,0,0,1,.448-.223c.481,0,.693.324.693.907v.492a9.488,9.488,0,0,1-1.8.739c-.593.234-.86.5-.86,1.088a1.469,1.469,0,0,0,1.52,1.451,4,4,0,0,0,1.184-.648,1.124,1.124,0,0,0,.29.414,1.028,1.028,0,0,0,.693.234Zm-2.224-.4a.628.628,0,0,1-.491.181.761.761,0,0,1-.682-.849.807.807,0,0,1,.544-.76l.626-.346Z" transform="translate(2644.42 -3032.283)" fill="#fff"/>
    <path id="Path_59516" data-name="Path 59516" d="M1260.606,1268.676a1.042,1.042,0,0,0,.559-.2c.2-.134.481-.3.682-.435v.648a18.481,18.481,0,0,1,2.191-.435v-.363l-.247-.035c-.425-.056-.492-.112-.492-.715v-6.429a15.5,15.5,0,0,1-2.2.381v.363c.693.089.749.145.749.738v1.292a2.551,2.551,0,0,0-.446-.033,2.91,2.91,0,0,0-3.1,2.75,2.407,2.407,0,0,0,2.3,2.482m.4-4.729a.869.869,0,0,1,.838.559v3.118a1.029,1.029,0,0,1-.615.181c-.5-.011-1.318-.544-1.318-2.012,0-1.622.749-1.856,1.088-1.856" transform="translate(2620.367 -3019.961)" fill="#fff"/>
    <path id="Path_59517" data-name="Path 59517" d="M1308.684,1280.343c-.459-.067-.5-.112-.5-.793v-2.706a1.369,1.369,0,0,1,.838-.335c.392,0,.782.247.782,1.039v1.912c0,.771-.033.816-.5.884v.381h2.549v-.381c-.544-.078-.6-.112-.6-.805v-2.113c0-1.141-.57-1.8-1.475-1.8a1.535,1.535,0,0,0-.873.29c-.257.156-.491.325-.715.481,0-.257.011-.649.022-.805a11.665,11.665,0,0,1-2.046.424v.363c.491.1.581.134.581.805v2.326c0,.725-.067.738-.648.838v.381h2.594Z" transform="translate(2581.249 -3032.142)" fill="#fff"/>
    <path id="Path_59518" data-name="Path 59518" d="M1341.53,1278.432a2.634,2.634,0,1,0,5.266-.121,2.486,2.486,0,0,0-2.573-2.527,2.637,2.637,0,0,0-2.694,2.65m3.655.2c0,1.633-.459,1.923-.883,1.923-.7,0-1.163-1.063-1.163-2.449s.47-1.877.951-1.877c.693,0,1.089.851,1.089,2.4" transform="translate(2552.237 -3032.298)" fill="#fff"/>
    <path id="Path_59519" data-name="Path 59519" d="M1377.844,1275.78a2.637,2.637,0,0,0-2.694,2.651,2.634,2.634,0,1,0,5.266-.122,2.485,2.485,0,0,0-2.571-2.527m.078,4.774c-.7,0-1.163-1.061-1.163-2.449s.47-1.878.951-1.878c.693,0,1.088.849,1.088,2.4,0,1.633-.459,1.923-.883,1.923" transform="translate(2524.716 -3032.297)" fill="#fff"/>
    <path id="Path_59520" data-name="Path 59520" d="M1410.889,1276.9c.182,0,.336.181.526.336a.309.309,0,0,0,.347.056,1.089,1.089,0,0,0,.57-.95.68.68,0,0,0-.726-.671c-.459,0-.86.413-1.364,1.185v-1.208a10.721,10.721,0,0,1-2.012.424v.347c.526.112.57.167.57.726v2.449c0,.671-.056.725-.649.794v.381h2.952v-.381c-.782-.089-.86-.123-.86-.793v-2.124c.2-.424.481-.57.647-.57" transform="translate(2497.702 -3032.19)" fill="#fff"/>
    <path id="Path_59521" data-name="Path 59521" d="M1447.411,1269.953v.414h3.241v-.414c-.726-.089-.827-.167-1.241-1.208-.726-1.866-1.487-3.856-2.2-5.8l-.544.1-2.326,5.78c-.381.94-.559,1.039-1.27,1.128v.414h2.761v-.414c-.884-.078-1.152-.167-.916-.872.112-.347.269-.771.392-1.117h2.177c.169.446.346.951.459,1.286.156.481.156.6-.544.7m-1.9-2.56c.279-.816.593-1.565.916-2.369l.862,2.369Z" transform="translate(2469.117 -3021.786)" fill="#fff"/>
    <path id="Path_59522" data-name="Path 59522" d="M1491.441,1296.19a.934.934,0,1,0-.907-.94.893.893,0,0,0,.907.94" transform="translate(2430.264 -3047.476)" fill="#fff"/>
    <path id="Path_59523" data-name="Path 59523" d="M1507.7,1276.891v-.381h-2.237v.381c.782.078.916.223.816.637-.1.492-.481,1.577-.671,2.124-.435-1.028-.883-2.09-1.27-3.1h-.47c-.346.983-.749,2.068-1.163,3.053-.212-.682-.435-1.431-.648-2.159-.123-.363-.056-.47.593-.559v-.381h-2.828v.381c.544.067.593.156.782.693.413,1.251.894,2.639,1.342,4.014h.459c.4-1.051.817-2.046,1.241-3.084.414.972.884,2.046,1.3,3.084h.47c.544-1.555,1.018-2.917,1.421-3.958.247-.594.325-.648.862-.749" transform="translate(2422.661 -3032.895)" fill="#fff"/>
    <path id="Path_59524" data-name="Path 59524" d="M1547.762,1280.308a1.124,1.124,0,0,0,.29.414,1.029,1.029,0,0,0,.693.234l1.2-.637-.123-.379a.841.841,0,0,1-.347.089c-.181,0-.363-.134-.363-.671v-1.934a1.515,1.515,0,0,0-.615-1.375,1.964,1.964,0,0,0-1.152-.325,5.5,5.5,0,0,0-1.789.795c-.257.181-.392.325-.392.526a.679.679,0,0,0,.66.58.442.442,0,0,0,.481-.381,2.129,2.129,0,0,1,.268-.738.544.544,0,0,1,.446-.223c.481,0,.693.325.693.907v.492a9.48,9.48,0,0,1-1.8.738c-.593.236-.86.5-.86,1.088a1.469,1.469,0,0,0,1.52,1.451,4,4,0,0,0,1.185-.648m-.671-1.814.626-.346v1.778a.632.632,0,0,1-.491.182.762.762,0,0,1-.682-.849.811.811,0,0,1,.544-.76" transform="translate(2385.636 -3032.25)" fill="#fff"/>
    <path id="Path_59525" data-name="Path 59525" d="M1573.422,1268.146v.381h2.772v-.381c-.637-.078-.671-.123-.671-.86v-6.6a11.543,11.543,0,0,1-2.092.379v.363c.582.123.649.181.649.771v5.079c0,.7-.022.76-.661.86" transform="translate(2362.413 -3019.944)" fill="#fff"/>
    <path id="Path_59526" data-name="Path 59526" d="M1594.336,1280.465c-.649-.078-.693-.156-.693-.916v-3.809a12.238,12.238,0,0,1-2.024.4v.363c.526.067.582.112.582.86v2.177c0,.795-.067.838-.671.916v.381h2.806Z" transform="translate(2347.587 -3032.264)" fill="#fff"/>
    <path id="Path_59527" data-name="Path 59527" d="M1594.33,1264a.815.815,0,0,0,.805.794.8.8,0,0,0,.816-.793.786.786,0,0,0-.805-.794.8.8,0,0,0-.816.794" transform="translate(2345.295 -3022.006)" fill="#fff"/>
    <path id="Path_59528" data-name="Path 59528" d="M1624.842,1294.329a.934.934,0,1,0,.916.929.9.9,0,0,0-.916-.929" transform="translate(2321.098 -3047.481)" fill="#fff"/>
    <path id="Path_59529" data-name="Path 59529" d="M1642.693,1270.665c-.973-.089-1.05-.134-1.05-1.074v-1.52l.648.167a2.777,2.777,0,0,0,.335.022,2.371,2.371,0,0,0,2.572-2.314,1.94,1.94,0,0,0-.838-1.689,3.61,3.61,0,0,0-2.046-.446h-3.175v.414c.838.056.95.156.95,1.088v4.27c0,.94-.112.972-.95,1.074v.414h3.555Zm-1.05-5.937a.429.429,0,0,1,.1-.347.681.681,0,0,1,.435-.112c.725,0,1.409.413,1.409,1.665,0,1.477-.838,1.778-1.353,1.778a1.428,1.428,0,0,1-.593-.112Z" transform="translate(2308.614 -3022.498)" fill="#fff"/>
    <path id="Path_59530" data-name="Path 59530" d="M1678.055,1261.98v-1.27a11.38,11.38,0,0,1-2.135.379v.363c.626.1.693.223.693.738v5.177c0,.7-.1.738-.648.805v.381h2.661v-.381c-.513-.078-.57-.156-.57-.76v-2.8a1.143,1.143,0,0,1,.816-.325c.436,0,.794.29.794,1.152v1.968c0,.6-.032.682-.526.76v.381h2.6v-.381c-.544-.089-.615-.1-.615-.805v-2.046c0-1.23-.582-1.867-1.554-1.867a2.311,2.311,0,0,0-1.509.726Z" transform="translate(2278.506 -3019.96)" fill="#fff"/>
    <path id="Path_59531" data-name="Path 59531" d="M1710.18,1264.16c.827.067.951.156.951,1.089v4.248c0,.927-.1,1.029-.951,1.088V1271h2.852a5.558,5.558,0,0,0,3.387-.94,3.509,3.509,0,0,0,1.4-2.919,3.2,3.2,0,0,0-.994-2.449,4.52,4.52,0,0,0-3.209-.961h-3.432Zm2.505.838c0-.324.022-.513.123-.615a1,1,0,0,1,.671-.156,2.356,2.356,0,0,1,1.8.626,3.454,3.454,0,0,1,.805,2.47c0,2.113-.873,3.164-2.381,3.164-.817,0-1.018-.269-1.018-1.063Z" transform="translate(2250.46 -3022.433)" fill="#fff"/>
    <path id="Path_59532" data-name="Path 59532" d="M1930.47,1104.773c-1.187-2.3-2.775-4.017-3.185-6.555-1.381-8.551-6.127-15.08-12.881-20.277a53.7,53.7,0,0,0-11.484-6.625,1.4,1.4,0,0,0-.99-.078c-7.665,3.343-14.537,7.752-19.494,14.682a30.647,30.647,0,0,0-5.39,13.712,5.757,5.757,0,0,1-.7,1.952c-.615,1.093-1.339,2.125-2.018,3.182l-.278-.025c-.233-1.766-.573-3.527-.68-5.3-.494-8.141,2.4-15.118,7.513-21.264,5.694-6.854,12.869-11.76,20.869-15.537a1.3,1.3,0,0,1,.975-.068c9.449,4.506,17.838,10.36,23.695,19.257a28.083,28.083,0,0,1,4.361,21.484c-.077.4-.176.8-.321,1.454" transform="translate(2111.536 -2850.258)" fill="#fff"/>
    <path id="Path_59533" data-name="Path 59533" d="M2080.384,1294.59c0-2.26-.016-4.288.019-6.315a1.3,1.3,0,0,1,.419-.814c.558-.519,1.175-.975,1.821-1.5-.775-.82-1.332-1.343-1.8-1.935a1.962,1.962,0,0,1-.436-1.071c-.048-1.534-.041-3.069,0-4.6a1.811,1.811,0,0,1,.342-1.042,12.644,12.644,0,0,1,7.286-4.216.755.755,0,0,1,.647.249c2.48,3.976,4.943,7.966,7.447,12.036a26.357,26.357,0,0,0-15.737,9.219" transform="translate(1934.58 -3030.229)" fill="#fff"/>
    <path id="Path_59534" data-name="Path 59534" d="M1972.1,1285.605a6.757,6.757,0,0,0,.75.833,3.7,3.7,0,0,1,1.483,3.691c-.115,1.4-.025,2.816-.025,4.506a26.408,26.408,0,0,0-15.746-9.2c1.035-1.679,2.035-3.3,3.029-4.916,1.425-2.31,2.838-4.626,4.3-6.915a1.09,1.09,0,0,1,.872-.436,13.065,13.065,0,0,1,6.812,3.713,2.379,2.379,0,0,1,.76,1.89,33.355,33.355,0,0,0,0,3.717,2.15,2.15,0,0,1-.837,2.006c-.445.342-.881.7-1.39,1.1" transform="translate(2038.683 -3030.293)" fill="#fff"/>
    <path id="Path_59535" data-name="Path 59535" d="M2085.52,1290.741c4.745-6.35,11.139-9.661,19.188-10.136l-9.634-14.537a8.023,8.023,0,0,1,4.806.331,3.465,3.465,0,0,1,1.949,1.528c3.4,5.425,6.858,10.821,10.295,16.226.156.246.3.5.515.86-9.9-1.807-18.831.393-27.115,5.73" transform="translate(1930.179 -3024.03)" fill="#fff"/>
    <path id="Path_59536" data-name="Path 59536" d="M1902.2,1290.676c-8.3-5.379-17.259-7.588-27.2-5.761.8-1.257,1.544-2.425,2.285-3.594,2.929-4.61,5.848-9.226,8.8-13.821a2.709,2.709,0,0,1,1.1-.948,8.282,8.282,0,0,1,4.48-.789c.283.033.563.1.949.177l-9.648,14.557a24.626,24.626,0,0,1,19.232,10.176" transform="translate(2110.096 -3023.924)" fill="#fff"/>
    <path id="Path_59537" data-name="Path 59537" d="M2176.27,1088.505a10.449,10.449,0,0,1,5.739-2.124,1.093,1.093,0,0,1,.74.359c10.35,10.827,14.586,23.533,11.788,38.4a4.5,4.5,0,0,1-.184.5c.592-15.689-4.875-28.24-18.083-37.134" transform="translate(1852.621 -2870.662)" fill="#fff"/>
    <path id="Path_59538" data-name="Path 59538" d="M1857.105,1088.625c-13.2,8.867-18.678,21.436-18.2,37.013-.215-1.278-.5-2.548-.634-3.835-1.427-13.343,2.762-24.754,11.871-34.487a2.05,2.05,0,0,1,2.15-.734,11,11,0,0,1,4.812,2.044" transform="translate(2141.719 -2870.782)" fill="#fff"/>
  </g>
</svg>
